<?xml version="1.0" encoding="UTF-8" standalone="no"?><svg xmlns="http://www.w3.org/2000/svg" version="1.1" xmlns:xlink="http://www.w3.org/1999/xlink" xmlns:svgjs="http://svgjs.dev/svgjs" width="1200" height="560" preserveAspectRatio="none" viewBox="0 0 1200 560"><g mask="url(&quot;#SvgjsMask1105&quot;)" fill="none"><rect width="1200" height="560" x="0" y="0" fill="url(&quot;#SvgjsLinearGradient1106&quot;)"></rect><path d="M33.86 -6.74L98.81 30.76L98.81 105.76L33.86 143.26L-31.09 105.76L-31.09 30.76zM358.63 555.76L423.58 593.26L423.58 668.26L358.63 705.76L293.68 668.26L293.68 593.26zM423.58 218.26L488.54 255.76L488.54 330.76L423.58 368.26L358.63 330.76L358.63 255.76zM423.58 443.26L488.54 480.76L488.54 555.76L423.58 593.26L358.63 555.76L358.63 480.76zM553.49 -6.74L618.44 30.76L618.44 105.76L553.49 143.26L488.54 105.76L488.54 30.76zM618.44 105.76L683.4 143.26L683.4 218.26L618.44 255.76L553.49 218.26L553.49 143.26zM683.4 443.26L748.35 480.76L748.35 555.76L683.4 593.26L618.44 555.76L618.44 480.76zM1008.17 105.76L1073.12 143.26L1073.12 218.26L1008.17 255.76L943.21 218.26L943.21 143.26zM943.21 443.26L1008.17 480.76L1008.17 555.76L943.21 593.26L878.26 555.76L878.26 480.76zM1203.03 443.26L1267.98 480.76L1267.98 555.76L1203.03 593.26L1138.07 555.76L1138.07 480.76z" stroke="rgba(65, 35, 110, 0.34)" stroke-width="2"></path><path d="M26.36 -6.74 a7.5 7.5 0 1 0 15 0 a7.5 7.5 0 1 0 -15 0zM91.31 30.76 a7.5 7.5 0 1 0 15 0 a7.5 7.5 0 1 0 -15 0zM91.31 105.76 a7.5 7.5 0 1 0 15 0 a7.5 7.5 0 1 0 -15 0zM26.36 143.26 a7.5 7.5 0 1 0 15 0 a7.5 7.5 0 1 0 -15 0zM-38.59 105.76 a7.5 7.5 0 1 0 15 0 a7.5 7.5 0 1 0 -15 0zM-38.59 30.76 a7.5 7.5 0 1 0 15 0 a7.5 7.5 0 1 0 -15 0zM351.13 555.76 a7.5 7.5 0 1 0 15 0 a7.5 7.5 0 1 0 -15 0zM416.08 593.26 a7.5 7.5 0 1 0 15 0 a7.5 7.5 0 1 0 -15 0zM416.08 668.26 a7.5 7.5 0 1 0 15 0 a7.5 7.5 0 1 0 -15 0zM351.13 705.76 a7.5 7.5 0 1 0 15 0 a7.5 7.5 0 1 0 -15 0zM286.18 668.26 a7.5 7.5 0 1 0 15 0 a7.5 7.5 0 1 0 -15 0zM286.18 593.26 a7.5 7.5 0 1 0 15 0 a7.5 7.5 0 1 0 -15 0zM416.08 218.26 a7.5 7.5 0 1 0 15 0 a7.5 7.5 0 1 0 -15 0zM481.04 255.76 a7.5 7.5 0 1 0 15 0 a7.5 7.5 0 1 0 -15 0zM481.04 330.76 a7.5 7.5 0 1 0 15 0 a7.5 7.5 0 1 0 -15 0zM416.08 368.26 a7.5 7.5 0 1 0 15 0 a7.5 7.5 0 1 0 -15 0zM351.13 330.76 a7.5 7.5 0 1 0 15 0 a7.5 7.5 0 1 0 -15 0zM351.13 255.76 a7.5 7.5 0 1 0 15 0 a7.5 7.5 0 1 0 -15 0zM416.08 443.26 a7.5 7.5 0 1 0 15 0 a7.5 7.5 0 1 0 -15 0zM481.04 480.76 a7.5 7.5 0 1 0 15 0 a7.5 7.5 0 1 0 -15 0zM481.04 555.76 a7.5 7.5 0 1 0 15 0 a7.5 7.5 0 1 0 -15 0zM351.13 480.76 a7.5 7.5 0 1 0 15 0 a7.5 7.5 0 1 0 -15 0zM545.99 -6.74 a7.5 7.5 0 1 0 15 0 a7.5 7.5 0 1 0 -15 0zM610.94 30.76 a7.5 7.5 0 1 0 15 0 a7.5 7.5 0 1 0 -15 0zM610.94 105.76 a7.5 7.5 0 1 0 15 0 a7.5 7.5 0 1 0 -15 0zM545.99 143.26 a7.5 7.5 0 1 0 15 0 a7.5 7.5 0 1 0 -15 0zM481.04 105.76 a7.5 7.5 0 1 0 15 0 a7.5 7.5 0 1 0 -15 0zM481.04 30.76 a7.5 7.5 0 1 0 15 0 a7.5 7.5 0 1 0 -15 0zM675.9 143.26 a7.5 7.5 0 1 0 15 0 a7.5 7.5 0 1 0 -15 0zM675.9 218.26 a7.5 7.5 0 1 0 15 0 a7.5 7.5 0 1 0 -15 0zM610.94 255.76 a7.5 7.5 0 1 0 15 0 a7.5 7.5 0 1 0 -15 0zM545.99 218.26 a7.5 7.5 0 1 0 15 0 a7.5 7.5 0 1 0 -15 0zM675.9 443.26 a7.5 7.5 0 1 0 15 0 a7.5 7.5 0 1 0 -15 0zM740.85 480.76 a7.5 7.5 0 1 0 15 0 a7.5 7.5 0 1 0 -15 0zM740.85 555.76 a7.5 7.5 0 1 0 15 0 a7.5 7.5 0 1 0 -15 0zM675.9 593.26 a7.5 7.5 0 1 0 15 0 a7.5 7.5 0 1 0 -15 0zM610.94 555.76 a7.5 7.5 0 1 0 15 0 a7.5 7.5 0 1 0 -15 0zM610.94 480.76 a7.5 7.5 0 1 0 15 0 a7.5 7.5 0 1 0 -15 0zM1000.67 105.76 a7.5 7.5 0 1 0 15 0 a7.5 7.5 0 1 0 -15 0zM1065.62 143.26 a7.5 7.5 0 1 0 15 0 a7.5 7.5 0 1 0 -15 0zM1065.62 218.26 a7.5 7.5 0 1 0 15 0 a7.5 7.5 0 1 0 -15 0zM1000.67 255.76 a7.5 7.5 0 1 0 15 0 a7.5 7.5 0 1 0 -15 0zM935.71 218.26 a7.5 7.5 0 1 0 15 0 a7.5 7.5 0 1 0 -15 0zM935.71 143.26 a7.5 7.5 0 1 0 15 0 a7.5 7.5 0 1 0 -15 0zM935.71 443.26 a7.5 7.5 0 1 0 15 0 a7.5 7.5 0 1 0 -15 0zM1000.67 480.76 a7.5 7.5 0 1 0 15 0 a7.5 7.5 0 1 0 -15 0zM1000.67 555.76 a7.5 7.5 0 1 0 15 0 a7.5 7.5 0 1 0 -15 0zM935.71 593.26 a7.5 7.5 0 1 0 15 0 a7.5 7.5 0 1 0 -15 0zM870.76 555.76 a7.5 7.5 0 1 0 15 0 a7.5 7.5 0 1 0 -15 0zM870.76 480.76 a7.5 7.5 0 1 0 15 0 a7.5 7.5 0 1 0 -15 0zM1195.53 443.26 a7.5 7.5 0 1 0 15 0 a7.5 7.5 0 1 0 -15 0zM1260.48 480.76 a7.5 7.5 0 1 0 15 0 a7.5 7.5 0 1 0 -15 0zM1260.48 555.76 a7.5 7.5 0 1 0 15 0 a7.5 7.5 0 1 0 -15 0zM1195.53 593.26 a7.5 7.5 0 1 0 15 0 a7.5 7.5 0 1 0 -15 0zM1130.57 555.76 a7.5 7.5 0 1 0 15 0 a7.5 7.5 0 1 0 -15 0zM1130.57 480.76 a7.5 7.5 0 1 0 15 0 a7.5 7.5 0 1 0 -15 0z" fill="rgba(65, 35, 110, 0.34)"></path><path d="M13.53 -9.15L56.83 15.85L56.83 65.85L13.53 90.85L-29.77 65.85L-29.77 15.85zM56.83 65.85L100.14 90.85L100.14 140.85L56.83 165.85L13.53 140.85L13.53 90.85zM56.83 215.85L100.14 240.85L100.14 290.85L56.83 315.85L13.53 290.85L13.53 240.85zM100.14 140.85L143.44 165.85L143.44 215.85L100.14 240.85L56.83 215.85L56.83 165.85zM143.44 215.85L186.74 240.85L186.74 290.85L143.44 315.85L100.14 290.85L100.14 240.85zM186.74 -9.15L230.04 15.85L230.04 65.85L186.74 90.85L143.44 65.85L143.44 15.85zM230.04 65.85L273.34 90.85L273.34 140.85L230.04 165.85L186.74 140.85L186.74 90.85zM186.74 290.85L230.04 315.85L230.04 365.85L186.74 390.85L143.44 365.85L143.44 315.85zM230.04 365.85L273.34 390.85L273.34 440.85L230.04 465.85L186.74 440.85L186.74 390.85zM316.65 215.85L359.95 240.85L359.95 290.85L316.65 315.85L273.34 290.85L273.34 240.85zM273.34 290.85L316.65 315.85L316.65 365.85L273.34 390.85L230.04 365.85L230.04 315.85zM316.65 515.85L359.95 540.85L359.95 590.85L316.65 615.85L273.34 590.85L273.34 540.85zM403.25 65.85L446.56 90.85L446.56 140.85L403.25 165.85L359.95 140.85L359.95 90.85zM359.95 290.85L403.25 315.85L403.25 365.85L359.95 390.85L316.65 365.85L316.65 315.85zM489.86 65.85L533.16 90.85L533.16 140.85L489.86 165.85L446.56 140.85L446.56 90.85zM446.56 140.85L489.86 165.85L489.86 215.85L446.56 240.85L403.25 215.85L403.25 165.85zM489.86 215.85L533.16 240.85L533.16 290.85L489.86 315.85L446.56 290.85L446.56 240.85zM446.56 290.85L489.86 315.85L489.86 365.85L446.56 390.85L403.25 365.85L403.25 315.85zM489.86 365.85L533.16 390.85L533.16 440.85L489.86 465.85L446.56 440.85L446.56 390.85zM533.16 -9.15L576.46 15.85L576.46 65.85L533.16 90.85L489.86 65.85L489.86 15.85zM576.46 65.85L619.76 90.85L619.76 140.85L576.46 165.85L533.16 140.85L533.16 90.85zM533.16 140.85L576.46 165.85L576.46 215.85L533.16 240.85L489.86 215.85L489.86 165.85zM533.16 440.85L576.46 465.85L576.46 515.85L533.16 540.85L489.86 515.85L489.86 465.85zM576.46 515.85L619.76 540.85L619.76 590.85L576.46 615.85L533.16 590.85L533.16 540.85zM663.07 65.85L706.37 90.85L706.37 140.85L663.07 165.85L619.76 140.85L619.76 90.85zM619.76 140.85L663.07 165.85L663.07 215.85L619.76 240.85L576.46 215.85L576.46 165.85zM663.07 215.85L706.37 240.85L706.37 290.85L663.07 315.85L619.76 290.85L619.76 240.85zM619.76 290.85L663.07 315.85L663.07 365.85L619.76 390.85L576.46 365.85L576.46 315.85zM663.07 365.85L706.37 390.85L706.37 440.85L663.07 465.85L619.76 440.85L619.76 390.85zM619.76 440.85L663.07 465.85L663.07 515.85L619.76 540.85L576.46 515.85L576.46 465.85zM663.07 515.85L706.37 540.85L706.37 590.85L663.07 615.85L619.76 590.85L619.76 540.85zM706.37 140.85L749.67 165.85L749.67 215.85L706.37 240.85L663.07 215.85L663.07 165.85zM749.67 215.85L792.98 240.85L792.98 290.85L749.67 315.85L706.37 290.85L706.37 240.85zM749.67 365.85L792.98 390.85L792.98 440.85L749.67 465.85L706.37 440.85L706.37 390.85zM706.37 440.85L749.67 465.85L749.67 515.85L706.37 540.85L663.07 515.85L663.07 465.85zM749.67 515.85L792.98 540.85L792.98 590.85L749.67 615.85L706.37 590.85L706.37 540.85zM836.28 65.85L879.58 90.85L879.58 140.85L836.28 165.85L792.98 140.85L792.98 90.85zM836.28 215.85L879.58 240.85L879.58 290.85L836.28 315.85L792.98 290.85L792.98 240.85zM836.28 365.85L879.58 390.85L879.58 440.85L836.28 465.85L792.98 440.85L792.98 390.85zM792.98 440.85L836.28 465.85L836.28 515.85L792.98 540.85L749.67 515.85L749.67 465.85zM879.58 -9.15L922.88 15.85L922.88 65.85L879.58 90.85L836.28 65.85L836.28 15.85zM922.88 215.85L966.19 240.85L966.19 290.85L922.88 315.85L879.58 290.85L879.58 240.85zM922.88 365.85L966.19 390.85L966.19 440.85L922.88 465.85L879.58 440.85L879.58 390.85zM1009.49 65.85L1052.79 90.85L1052.79 140.85L1009.49 165.85L966.19 140.85L966.19 90.85zM1009.49 365.85L1052.79 390.85L1052.79 440.85L1009.49 465.85L966.19 440.85L966.19 390.85zM966.19 440.85L1009.49 465.85L1009.49 515.85L966.19 540.85L922.88 515.85L922.88 465.85zM1096.09 65.85L1139.39 90.85L1139.39 140.85L1096.09 165.85L1052.79 140.85L1052.79 90.85zM1052.79 140.85L1096.09 165.85L1096.09 215.85L1052.79 240.85L1009.49 215.85L1009.49 165.85zM1052.79 290.85L1096.09 315.85L1096.09 365.85L1052.79 390.85L1009.49 365.85L1009.49 315.85zM1096.09 365.85L1139.39 390.85L1139.39 440.85L1096.09 465.85L1052.79 440.85L1052.79 390.85zM1096.09 515.85L1139.39 540.85L1139.39 590.85L1096.09 615.85L1052.79 590.85L1052.79 540.85zM1182.7 65.85L1226 90.85L1226 140.85L1182.7 165.85L1139.39 140.85L1139.39 90.85zM1182.7 515.85L1226 540.85L1226 590.85L1182.7 615.85L1139.39 590.85L1139.39 540.85z" stroke="rgba(160, 118, 225, 0.45)" stroke-width="2"></path></g><defs><mask id="SvgjsMask1105"><rect width="1200" height="560" fill="#ffffff"></rect></mask><linearGradient x1="0%" y1="50%" x2="100%" y2="50%" gradientUnits="userSpaceOnUse" id="SvgjsLinearGradient1106"><stop stop-color="rgba(160, 118, 225, 1)" offset="0"></stop><stop stop-color="rgba(65, 35, 110, 1)" offset="1"></stop></linearGradient></defs></svg>