<?xml version="1.0" encoding="UTF-8" standalone="no"?><svg xmlns="http://www.w3.org/2000/svg" version="1.1" xmlns:xlink="http://www.w3.org/1999/xlink" xmlns:svgjs="http://svgjs.dev/svgjs" width="1440" height="350" preserveAspectRatio="none" viewBox="0 0 1440 350"><g mask="url(&quot;#SvgjsMask1027&quot;)" fill="none"><rect width="1440" height="350" x="0" y="0" fill="rgba(37, 19, 64, 1)"></rect><path d="M47 350L397 0L620.5 0L270.5 350z" fill="url(&quot;#SvgjsLinearGradient1028&quot;)"></path><path d="M266.6 350L616.6 0L970.6 0L620.6 350z" fill="url(&quot;#SvgjsLinearGradient1028&quot;)"></path><path d="M492.20000000000005 350L842.2 0L1086.7 0L736.7 350z" fill="url(&quot;#SvgjsLinearGradient1028&quot;)"></path><path d="M721.8000000000001 350L1071.8000000000002 0L1343.3000000000002 0L993.3000000000001 350z" fill="url(&quot;#SvgjsLinearGradient1028&quot;)"></path><path d="M1398 350L1048 0L830.5 0L1180.5 350z" fill="url(&quot;#SvgjsLinearGradient1029&quot;)"></path><path d="M1173.4 350L823.4000000000001 0L695.9000000000001 0L1045.9 350z" fill="url(&quot;#SvgjsLinearGradient1029&quot;)"></path><path d="M958.8 350L608.8 0L526.3 0L876.3 350z" fill="url(&quot;#SvgjsLinearGradient1029&quot;)"></path><path d="M698.1999999999999 350L348.19999999999993 0L240.19999999999993 0L590.1999999999999 350z" fill="url(&quot;#SvgjsLinearGradient1029&quot;)"></path><path d="M1110.6152028337024 350L1440 20.615202833702483L1440 350z" fill="url(&quot;#SvgjsLinearGradient1028&quot;)"></path><path d="M0 350L329.3847971662975 350L 0 20.615202833702483z" fill="url(&quot;#SvgjsLinearGradient1029&quot;)"></path></g><defs><mask id="SvgjsMask1027"><rect width="1440" height="350" fill="#ffffff"></rect></mask><linearGradient x1="0%" y1="100%" x2="100%" y2="0%" id="SvgjsLinearGradient1028"><stop stop-color="rgba(65, 35, 110, 0.54)" offset="0"></stop><stop stop-opacity="0" stop-color="rgba(65, 35, 110, 0.54)" offset="0.66"></stop></linearGradient><linearGradient x1="100%" y1="100%" x2="0%" y2="0%" id="SvgjsLinearGradient1029"><stop stop-color="rgba(65, 35, 110, 0.54)" offset="0"></stop><stop stop-opacity="0" stop-color="rgba(65, 35, 110, 0.54)" offset="0.66"></stop></linearGradient></defs></svg>